<mxfile host="app.diagrams.net" agent="Mozilla/5.0 (Windows NT 10.0; Win64; x64) AppleWebKit/537.36 (KHTML, like Gecko) Chrome/134.0.0.0 Safari/537.36" version="26.1.1">
  <diagram name="第 1 页" id="9LnkKVALkOScfHFtXxw_">
    <mxGraphModel dx="1050" dy="522" grid="0" gridSize="10" guides="1" tooltips="1" connect="1" arrows="1" fold="1" page="0" pageScale="1" pageWidth="827" pageHeight="1169" math="0" shadow="0">
      <root>
        <mxCell id="0" />
        <mxCell id="1" parent="0" />
        <mxCell id="NLS2ERvlQ-fqxYnL2zQf-1" value="&lt;span&gt;用户是否属于该组织？&lt;/span&gt;" style="rhombus;whiteSpace=wrap;html=1;fontStyle=1" vertex="1" parent="1">
          <mxGeometry x="50" y="150" width="130" height="80" as="geometry" />
        </mxCell>
        <mxCell id="NLS2ERvlQ-fqxYnL2zQf-3" value="" style="endArrow=classic;html=1;rounded=0;fontStyle=1" edge="1" parent="1">
          <mxGeometry width="50" height="50" relative="1" as="geometry">
            <mxPoint x="114.5" y="230" as="sourcePoint" />
            <mxPoint x="114.5" y="280" as="targetPoint" />
          </mxGeometry>
        </mxCell>
        <mxCell id="NLS2ERvlQ-fqxYnL2zQf-4" value="否" style="text;html=1;align=center;verticalAlign=middle;resizable=0;points=[];autosize=1;strokeColor=none;fillColor=none;fontStyle=1" vertex="1" parent="1">
          <mxGeometry x="110" y="238" width="40" height="30" as="geometry" />
        </mxCell>
        <mxCell id="NLS2ERvlQ-fqxYnL2zQf-5" value="&lt;span&gt;用户申请加入该组织&lt;/span&gt;" style="rounded=1;whiteSpace=wrap;html=1;fontStyle=1" vertex="1" parent="1">
          <mxGeometry x="55" y="280" width="120" height="60" as="geometry" />
        </mxCell>
        <mxCell id="NLS2ERvlQ-fqxYnL2zQf-6" value="" style="endArrow=classic;html=1;rounded=0;fontStyle=1" edge="1" parent="1">
          <mxGeometry width="50" height="50" relative="1" as="geometry">
            <mxPoint x="180" y="190" as="sourcePoint" />
            <mxPoint x="240" y="190" as="targetPoint" />
          </mxGeometry>
        </mxCell>
        <mxCell id="NLS2ERvlQ-fqxYnL2zQf-7" value="是" style="text;html=1;align=center;verticalAlign=middle;resizable=0;points=[];autosize=1;strokeColor=none;fillColor=none;fontStyle=1" vertex="1" parent="1">
          <mxGeometry x="190" y="158" width="40" height="30" as="geometry" />
        </mxCell>
        <mxCell id="NLS2ERvlQ-fqxYnL2zQf-8" value="" style="endArrow=none;html=1;rounded=0;fontStyle=1" edge="1" parent="1">
          <mxGeometry width="50" height="50" relative="1" as="geometry">
            <mxPoint x="240" y="240" as="sourcePoint" />
            <mxPoint x="240" y="140" as="targetPoint" />
          </mxGeometry>
        </mxCell>
        <mxCell id="NLS2ERvlQ-fqxYnL2zQf-9" value="" style="endArrow=classic;html=1;rounded=0;fontStyle=1" edge="1" parent="1">
          <mxGeometry width="50" height="50" relative="1" as="geometry">
            <mxPoint x="240" y="140" as="sourcePoint" />
            <mxPoint x="310" y="140" as="targetPoint" />
          </mxGeometry>
        </mxCell>
        <mxCell id="NLS2ERvlQ-fqxYnL2zQf-10" value="查看检测报告" style="rounded=1;whiteSpace=wrap;html=1;fontStyle=1" vertex="1" parent="1">
          <mxGeometry x="310" y="110" width="120" height="60" as="geometry" />
        </mxCell>
        <mxCell id="NLS2ERvlQ-fqxYnL2zQf-11" value="" style="endArrow=classic;html=1;rounded=0;fontStyle=1" edge="1" parent="1">
          <mxGeometry width="50" height="50" relative="1" as="geometry">
            <mxPoint x="240" y="238" as="sourcePoint" />
            <mxPoint x="310" y="238" as="targetPoint" />
          </mxGeometry>
        </mxCell>
        <mxCell id="NLS2ERvlQ-fqxYnL2zQf-12" value="讨论检测报告" style="rounded=1;whiteSpace=wrap;html=1;fontStyle=1" vertex="1" parent="1">
          <mxGeometry x="310" y="208" width="120" height="60" as="geometry" />
        </mxCell>
        <mxCell id="NLS2ERvlQ-fqxYnL2zQf-13" value="" style="endArrow=classic;html=1;rounded=0;fontStyle=1" edge="1" parent="1">
          <mxGeometry width="50" height="50" relative="1" as="geometry">
            <mxPoint x="430" y="240" as="sourcePoint" />
            <mxPoint x="490" y="240" as="targetPoint" />
          </mxGeometry>
        </mxCell>
        <mxCell id="NLS2ERvlQ-fqxYnL2zQf-14" value="&lt;span&gt;是否对检测结果有疑问？&lt;/span&gt;" style="rhombus;whiteSpace=wrap;html=1;fontStyle=1" vertex="1" parent="1">
          <mxGeometry x="490" y="200" width="150" height="80" as="geometry" />
        </mxCell>
        <mxCell id="NLS2ERvlQ-fqxYnL2zQf-15" value="" style="endArrow=classic;html=1;rounded=0;fontStyle=1" edge="1" parent="1">
          <mxGeometry width="50" height="50" relative="1" as="geometry">
            <mxPoint x="640" y="240" as="sourcePoint" />
            <mxPoint x="710" y="240" as="targetPoint" />
          </mxGeometry>
        </mxCell>
        <mxCell id="NLS2ERvlQ-fqxYnL2zQf-16" value="是" style="text;html=1;align=center;verticalAlign=middle;resizable=0;points=[];autosize=1;strokeColor=none;fillColor=none;fontStyle=1" vertex="1" parent="1">
          <mxGeometry x="660" y="208" width="40" height="30" as="geometry" />
        </mxCell>
        <mxCell id="NLS2ERvlQ-fqxYnL2zQf-17" value="提出质疑" style="rounded=1;whiteSpace=wrap;html=1;fontStyle=1" vertex="1" parent="1">
          <mxGeometry x="707" y="210" width="120" height="60" as="geometry" />
        </mxCell>
      </root>
    </mxGraphModel>
  </diagram>
</mxfile>
